PathFileType	4	(X/Y/Z)	24_1_49_p1_0-246_filt_butterworth.trc
DataRate	CameraRate	NumFrames	NumMarkers	Units	OrigDataRate	OrigDataStartFrame	OrigNumFrames
59.0	59.0	7	27	m	59.0	215	246
Frame#	Time	RHip			RKnee			RAnkle			RBigToe			RSmallToe			RHeel			LHip			LKnee			LAnkle			LBigToe			LSmallToe			LHeel			Neck			Head			Nose			RShoulder			RElbow			RWrist			RThumb			RIndex			RPinky			LShoulder			LElbow			LWrist			LThumb			LIndex			LPinky			
		X1	Y1	Z1	X2	Y2	Z2	X3	Y3	Z3	X4	Y4	Z4	X5	Y5	Z5	X6	Y6	Z6	X7	Y7	Z7	X8	Y8	Z8	X9	Y9	Z9	X10	Y10	Z10	X11	Y11	Z11	X12	Y12	Z12	X13	Y13	Z13	X14	Y14	Z14	X15	Y15	Z15	X16	Y16	Z16	X17	Y17	Z17	X18	Y18	Z18	X19	Y19	Z19	X20	Y20	Z20	X21	Y21	Z21	X22	Y22	Z22	X23	Y23	Z23	X24	Y24	Z24	X25	Y25	Z25	X26	Y26	Z26	X27	Y27	Z27	
215	3.6440677966101696	0.42917515387075	0.5292421164517622	0.834453351059697	0.43470338149627236	0.6249223086514204	1.2794034037026043	0.43157038343996496	0.6745689791973516	1.6958883912004203	0.41382207984835706	0.5464380209999382	1.724364445739301	0.4731212861098528	0.5484730410446831	1.7106137728100148	0.41850807135087265	0.7220010905152393	1.7398599436461866	0.2209901189625329	0.5164270991698222	0.8289797766238642	0.20213317294306327	0.597443673925795	1.2811423604451657	0.2014044706252586	0.6621862111320568	1.7008883384443143	0.24724129211882015	0.47604193627322217	1.7051503675228659	0.19006462844876676	0.5200230270364569	1.7104773737602061	0.2040641564283859	0.6978916485803511	1.7485488830793474	0.3260013214225845	0.46423665265669306	0.2520990165541688	0.3434754719595836	0.3625198384850785	0.028585304454958375	0.3417187723160924	0.319165308796939	0.14626100497753566	0.48632427275973095	0.4971357784127918	0.3369207648537089	0.5267727887890632	0.5507594208596528	0.5691878364334001	0.4525442031003607	0.3029441958371398	0.5771673634731146	0.3817884385006899	0.21798808436244296	0.5979669015730458	0.39525591047680225	0.1624151536654931	0.598997132363005	0.4188538571057314	0.20004333232789734	0.6352237296632824	0.18441297953583663	0.47809987863225045	0.3395175764871248	0.12067236551991826	0.5241041715485636	0.5703143601683975	0.22800880613549013	0.294581978300815	0.6048169605355225	0.299658509059537	0.22367811151876338	0.6275979038429876	0.2918471188323567	0.1914183265467215	0.6275658460214011	0.2642345027507044	0.20072475590977873	0.6724465556301946
216	3.6610169491525424	0.42874683263099966	0.5324495176095176	0.8381691483475779	0.43390806020711437	0.6219772893086902	1.2789887615960083	0.4314310557580078	0.6728286076228857	1.69546967985256	0.4138236433882144	0.5462309711256201	1.7244516441055027	0.4729040165586176	0.5469391043335048	1.7099657497498097	0.41817881040864646	0.7212956154167486	1.7386010564589656	0.22146671250494482	0.517603542945519	0.8303155373583653	0.20162395160011926	0.5981504974622772	1.2815219874809065	0.20139494334065203	0.6621722876928059	1.7010261391447585	0.247290384236842	0.47615612900645266	1.7052201611347284	0.19030136485721277	0.5203774762557295	1.7113249601245528	0.20272432589671868	0.6972074369758563	1.7484058167179826	0.32809082429709235	0.4596451116098015	0.2532054162417418	0.3433011487938649	0.3612893322168577	0.028718986571871254	0.33967366802788235	0.31446734629091855	0.14521628807954975	0.4858742417738745	0.4971004869890826	0.3355139965175792	0.5268162870502365	0.5514419176142251	0.5730188484477244	0.45045456696684644	0.30814792711165934	0.5925028939384221	0.3803022868067609	0.21903240122926115	0.6236289484736269	0.391601808463161	0.17124056816113284	0.6231043432447959	0.41315474162077653	0.22388981435394256	0.6568319831648488	0.18542093039957638	0.47867236717987943	0.3392994727550679	0.12060884092628041	0.5251512660896291	0.572130156545617	0.2276886502065069	0.2971811835355512	0.6186851013635057	0.30182397381020554	0.22723434977403312	0.6413172164821029	0.2887812226261435	0.1928867843194133	0.6435955938707366	0.2620728249792317	0.2145345603435302	0.6913459310306364
217	3.6779661016949152	0.4285392106289708	0.5336776510561191	0.8400897808635487	0.4333549000022876	0.6204107651526118	1.278829215312301	0.4315310972742509	0.6726001519199685	1.6952784617916004	0.41383387733533794	0.5461636412406494	1.7245611316579599	0.4723791249751194	0.5431512745968317	1.7083082200369424	0.4179082725547899	0.720628960314704	1.7379319061690937	0.22241316524905355	0.5152761642302753	0.8319165567693796	0.20130157296305795	0.5979465864434322	1.2812049445499019	0.20127988228104857	0.6622723024260114	1.7014468944311827	0.24766914463029244	0.4764186965004482	1.7052931874604607	0.1906022082603488	0.5211474805066784	1.7131716375075419	0.20144290264344022	0.6967473328920465	1.7483368419539058	0.32961463520610823	0.45623593522193506	0.25407936153308436	0.34283210526062563	0.35837860093966967	0.029118812858203946	0.3381393479335665	0.3111296742347825	0.14518521517416577	0.4860667263289661	0.4966853177497972	0.334645906929705	0.5275152836468309	0.5519698851410078	0.5771450657919843	0.44962883316825647	0.3126160686678802	0.6055932820584071	0.3792874528897159	0.21994124907019896	0.6444274620532255	0.3870438110306268	0.1855930495610523	0.6456051071159497	0.40856937107885827	0.24353324671229418	0.680075366937951	0.18557764905587443	0.4787612434894201	0.3392884472559649	0.11984446705540092	0.5246185591909506	0.5725239949920657	0.22756043292678635	0.29873012913422975	0.6287757369706526	0.3039933413412218	0.2295229377851152	0.6526543079043974	0.28796276478674937	0.19487673779454284	0.6578459665465841	0.26019924108722525	0.2267865002663373	0.705727448933885
218	3.694915254237288	0.4280848258670411	0.5336586312332524	0.8408143681080048	0.4329354893156091	0.6186178184332252	1.279235137912394	0.43163516397367296	0.6728768170275333	1.6952204050277153	0.4138661793696212	0.5461691870812304	1.724549769255872	0.4717116309471464	0.538158026637213	1.706046204358845	0.4176611769440365	0.7203533102684606	1.7372812902665609	0.22384865137036467	0.5101554078051416	0.8337786058772254	0.20122801344307012	0.5975085690663279	1.2810034499276928	0.2010373391699804	0.6625848052235205	1.7017470688011564	0.24861584859781494	0.47700537281330213	1.7054397857072288	0.19081588145112316	0.522078308448492	1.7154453992258896	0.2000458850803067	0.6968963074358326	1.7483557518298372	0.33016837815112554	0.4549493949884494	0.25446096856130845	0.3422006974019069	0.35474641664424866	0.029930225702837595	0.3375394736716037	0.3097974460398988	0.1457198840859833	0.4866026513390226	0.4942114309809257	0.33475698179255853	0.5281873880582684	0.5522931239421883	0.5799158694744787	0.4487309244033061	0.3166867304874796	0.6170648418778696	0.37797454883376347	0.22231028208592632	0.6604501510494903	0.38270895832837004	0.20189484217026293	0.6682172313725947	0.40554967198611824	0.25447517935486286	0.7032331068642068	0.18511872983638622	0.4783428563294629	0.33972668900413994	0.11797580546015202	0.5271567726509372	0.5725071767452397	0.22764145763136448	0.2991980678919949	0.6359500727893099	0.3059968010463586	0.23105988035887387	0.6626440113908113	0.29015911683239215	0.19865385144038364	0.6713908422896989	0.2587968089421123	0.23543498341222874	0.7165232172130488
219	3.711864406779661	0.42752359766047743	0.5331465929899267	0.8412553463079979	0.4322033959161661	0.6157823765036746	1.2798929435526747	0.43166702574701427	0.6731595200433613	1.6952362752329568	0.4139356876640463	0.546136727802096	1.7243580869797104	0.47112443106224633	0.5343803627356213	1.7042573552522264	0.41740087652266666	0.7206205642973231	1.7358884406591535	0.22517174236013765	0.5052800457887114	0.8362700367217063	0.20126672611691715	0.5970736300766151	1.2812461813679328	0.20079671446831604	0.6630740562156952	1.7010581290998037	0.2498663633626826	0.4778071940518889	1.7056487665078601	0.19091696496492327	0.5226753085787456	1.71708949672199	0.19851688598904157	0.6976439316670715	1.7481909270301625	0.33014706834648494	0.45493559806507994	0.25447343224610897	0.3417114648167965	0.35230332961850275	0.031144409723909056	0.3374174531658276	0.3087765971455425	0.14618438353229138	0.4869767789270867	0.48862742967663075	0.3357403364499551	0.528267621453343	0.5523753541725233	0.5810844818680803	0.44711250916551815	0.32182772131228166	0.6284628112194637	0.3764814592099364	0.22846466997746895	0.6769371412587417	0.38036628500629416	0.21629592166818634	0.6921731683690584	0.4038526148186199	0.25944310576204443	0.7232593878812499	0.1841305376773763	0.4774708674509537	0.3408219585875326	0.1145184836825217	0.533404559263804	0.5726727869901607	0.2277937112354882	0.29971427035109144	0.6419910367368311	0.30763561027267516	0.2322516078158029	0.6728359546523958	0.29429434861314474	0.20468136939583875	0.6860331713425619	0.25771278061454306	0.24332631883141348	0.7272615668596408
220	3.7288135593220337	0.4271288278465067	0.5313022609074474	0.8408343812359567	0.43083870164600185	0.6132886812006646	1.2804734198007248	0.431656226601197	0.6733046737995576	1.6952619908249837	0.4140235584344719	0.5460706288202325	1.724111627293372	0.4703843959600269	0.5329442307380483	1.7034957875054735	0.41719467392450443	0.7208573333056081	1.7339164735212917	0.22539403038506567	0.5025829803755104	0.8388615859182998	0.20133129106666292	0.5963808116700369	1.2817561531102961	0.20071344472138572	0.6635356152630401	1.6993084960681724	0.25079534845204177	0.4784707936738264	1.7058225183834348	0.19102222102220176	0.5227926695878997	1.7177049658991586	0.19799052288947774	0.6986470057846831	1.7472344310547745	0.33002796243580673	0.45514655176062896	0.25430967830271556	0.3415046011381787	0.35173577616059576	0.03244741588490479	0.3371639045577451	0.30625420308146956	0.14644697319474081	0.487307908144819	0.4803884398593293	0.33699987670427045	0.5277193245091535	0.5518602920325406	0.5812295962467717	0.4454178118013853	0.3273518113288929	0.640589969816446	0.37537603253128227	0.23809255872671486	0.6975365506521538	0.3806988343902631	0.22779998854188735	0.7149087881833652	0.4034816088061764	0.2635609839717412	0.7383954545417467	0.18291895045758	0.4765026643957023	0.34228979219250544	0.11044552439772008	0.5398561588582325	0.5730895719126416	0.22765043330800047	0.3022062086121958	0.6483898595942252	0.3085619011919793	0.2333864912039927	0.6850152283909514	0.2976591020781578	0.21157261405175526	0.7015699518847854	0.2560589627470065	0.2532464913533282	0.7395022387147433
221	3.745762711864407	0.4270141361674613	0.5269236774872721	0.8380718677689587	0.4294873287652907	0.6117778425506512	1.2805477567263435	0.43164209992441566	0.6733329892357451	1.6952484420984593	0.41397544206099385	0.5459996304683485	1.7239617952927795	0.46900784150864583	0.5329052803836755	1.7033360423929504	0.4171214490392478	0.7208021774373407	1.7325221657125578	0.22501838300844884	0.5017532944902812	0.8402726409148706	0.20148378354368518	0.5953459573485781	1.2821605691786941	0.20074277506497581	0.6638071008437291	1.697872620130388	0.2511236759388413	0.4788019708918225	1.705908734296223	0.19120368375658833	0.5226662165329	1.7177035725662093	0.1995672869393504	0.699533264524895	1.7451410846064646	0.32998762559638406	0.4552110224931343	0.25417213569080144	0.34148322054006536	0.35213895616293583	0.03338679931428103	0.3365642398279098	0.30245549332707533	0.14669243342354646	0.4878019946719149	0.4710952514910763	0.3378147453382152	0.5268775204125659	0.5499336852040461	0.5815737789077938	0.44459176996921357	0.3313232123602456	0.6532036764426307	0.375085935064543	0.2472446032627298	0.718809670451416	0.38252885113593277	0.2375892687803155	0.7321249394645525	0.4042858675062302	0.2716621800050845	0.7502031614679873	0.18203195112859447	0.47599359960187654	0.3434409952865862	0.10779382433899855	0.5456990109689173	0.5740776895673853	0.22689648486239358	0.30785378753412623	0.6563095986206867	0.3086602811189608	0.23501481732135984	0.6999023206630509	0.2980089546874191	0.217867403207204	0.7161712189308513	0.25376281055445726	0.2640191422885172	0.7522937718816143
